<?xml version="1.0" encoding="UTF-8"?>
<!DOCTYPE svg PUBLIC "-//W3C//DTD SVG 1.1//EN" "http://www.w3.org/Graphics/SVG/1.1/DTD/svg11.dtd">
<!-- Creator: CorelDRAW X8 -->
<svg xmlns="http://www.w3.org/2000/svg" xml:space="preserve" width="250.472mm" height="58.2082mm" version="1.1" style="shape-rendering:geometricPrecision; text-rendering:geometricPrecision; image-rendering:optimizeQuality; fill-rule:evenodd; clip-rule:evenodd"
viewBox="0 0 25047 5821"
 xmlns:xlink="http://www.w3.org/1999/xlink">
 <defs>
  <style type="text/css">
   <![CDATA[
    .fil15 {fill:#FEFEFE}
    .fil0 {fill:#EE3A43}
    .fil16 {fill:#F9FCFE}
    .fil14 {fill:#F9F9FC}
    .fil13 {fill:#F7FBFA}
    .fil10 {fill:#B7CDD8}
    .fil9 {fill:#9FBDCC}
    .fil11 {fill:#7CABC0}
    .fil12 {fill:#5897B3}
    .fil8 {fill:#3D85A7}
    .fil6 {fill:#345687}
    .fil7 {fill:#365486}
    .fil5 {fill:#365485}
    .fil4 {fill:#375385}
    .fil3 {fill:#375384}
    .fil2 {fill:#385283}
    .fil1 {fill:#385283}
   ]]>
  </style>
 </defs>
 <g id="Capa_x0020_1">
  <metadata id="CorelCorpID_0Corel-Layer"/>
  <path class="fil0" d="M1989 3213c0,269 0,539 0,808 13,21 16,45 16,69 -1,464 0,929 -1,1393 0,22 5,46 -18,62 -175,-56 -340,-134 -497,-230 -711,-433 -1166,-1055 -1331,-1872 -281,-1389 500,-2724 1788,-3202 13,-5 26,-13 41,-9 18,10 17,28 17,44 1,145 1,290 0,434 0,17 -2,34 -15,47 0,262 0,524 0,785 15,16 15,36 15,56 1,520 1,1040 0,1560 0,19 0,39 -15,55z"/>
  <path class="fil1" d="M1989 757c0,-157 -1,-314 -2,-471 0,-18 0,-36 0,-54 82,-41 171,-61 260,-83 1529,-377 3077,578 3424,2112 266,1175 -241,2387 -1265,3024 -32,20 -49,18 -76,-10 -408,-414 -816,-828 -1225,-1241 -9,-10 -24,-14 -32,-27 93,-16 180,-15 266,-31 673,-130 1122,-521 1306,-1180 251,-897 -312,-1803 -1224,-2002 -116,-26 -234,-36 -352,-36 -360,0 -720,-1 -1080,-1z"/>
  <path class="fil1" d="M1989 3213c0,-11 -2,-22 -2,-34 0,-534 0,-1069 0,-1603 0,-11 2,-22 2,-34 384,0 768,-7 1151,2 427,10 770,358 796,789 25,418 -278,799 -691,869 -54,10 -109,12 -164,12 -364,-1 -728,-1 -1092,-1z"/>
  <path class="fil1" d="M23088 2206c34,371 11,742 18,1113 1,27 -3,39 -35,38 -133,-2 -265,-1 -398,0 -27,0 -33,-7 -33,-33 1,-566 1,-1131 1,-1697 0,-27 5,-37 34,-36 134,1 268,1 402,0 21,0 34,6 46,23 215,294 433,588 647,883 55,76 91,162 132,246 6,13 13,27 23,48 6,-37 -3,-65 -6,-93 -13,-130 -15,-261 -15,-393 1,-224 1,-448 0,-673 0,-29 4,-42 39,-41 129,2 259,1 389,0 26,0 36,5 36,34 -1,566 -1,1132 0,1697 0,29 -8,35 -35,35 -133,-1 -265,-1 -398,0 -22,0 -35,-7 -48,-25 -214,-293 -428,-585 -641,-878 -62,-84 -102,-182 -149,-274 -14,1 -14,1 -9,26z"/>
  <path class="fil1" d="M14793 2350c-24,145 -74,283 -114,424 -50,181 -106,362 -156,543 -9,33 -23,41 -55,40 -72,-2 -144,-1 -216,0 -22,0 -34,-4 -41,-29 -91,-328 -194,-652 -280,-986 -14,52 -12,104 -18,154 -28,252 -66,503 -99,754 -5,35 4,83 -20,100 -25,17 -70,6 -107,6 -87,1 -175,0 -262,1 -23,0 -31,-3 -27,-30 79,-508 158,-1016 235,-1525 5,-32 13,-47 52,-46 118,4 237,2 355,1 20,0 34,2 40,26 89,306 179,613 267,920 7,24 11,49 16,74 84,-331 190,-655 284,-982 7,-26 15,-39 47,-39 121,3 243,2 364,1 26,-1 34,8 38,32 59,391 119,783 179,1174 18,118 35,237 56,355 6,33 -2,40 -34,39 -113,-2 -226,-1 -339,-1 -15,0 -29,5 -32,-20 -40,-320 -98,-638 -118,-961 -12,-4 11,-29 -15,-25z"/>
  <path class="fil2" d="M6682 2227c0,-218 1,-405 -1,-593 -1,-36 10,-44 45,-43 132,2 265,1 397,0 32,-1 41,8 40,40 -1,317 0,635 1,952 0,78 6,155 25,231 23,92 81,148 172,171 67,17 135,19 202,4 126,-28 186,-109 202,-262 8,-83 9,-167 9,-250 0,-281 1,-561 -1,-842 0,-35 10,-45 45,-44 132,2 265,1 397,0 28,0 40,4 40,36 -5,370 7,740 -8,1109 -3,89 -14,177 -42,262 -63,194 -197,312 -391,363 -229,60 -461,62 -690,1 -255,-68 -398,-250 -427,-518 -22,-215 -12,-431 -15,-617z"/>
  <path class="fil2" d="M17359 2805c-34,-338 -11,-677 -18,-1015 -1,-26 7,-33 33,-33 116,1 231,2 347,0 32,-1 40,9 40,40 -1,278 -1,556 -1,834 0,227 -1,454 1,681 1,39 -11,46 -47,45 -113,-2 -225,-1 -338,0 -23,0 -39,-5 -53,-25 -192,-265 -386,-528 -579,-793 -55,-76 -92,-164 -133,-248 -14,4 -14,5 -8,33 30,331 10,663 16,994 1,29 -5,40 -36,39 -117,-2 -234,-2 -351,0 -28,0 -35,-8 -35,-35 1,-509 1,-1019 0,-1528 0,-30 8,-38 37,-37 118,1 235,1 352,0 24,0 38,8 51,27 192,262 385,522 575,785 59,80 97,171 139,260 19,-3 8,-15 8,-24z"/>
  <path class="fil2" d="M8839 2290c37,346 11,694 19,1040 0,20 -5,27 -26,27 -123,-1 -245,-1 -368,0 -26,0 -26,-13 -26,-31 0,-83 0,-167 0,-250 0,-422 0,-843 0,-1265 0,-54 0,-54 55,-54 110,0 220,1 330,0 26,0 41,8 56,28 190,261 382,521 572,782 60,82 99,176 148,274 7,-34 -3,-60 -5,-86 -10,-100 -11,-200 -11,-300 0,-219 1,-438 -1,-656 0,-34 9,-43 42,-42 115,2 229,1 343,0 26,0 34,6 34,32 -1,513 -1,1025 0,1537 0,23 -6,31 -30,31 -122,-1 -243,-1 -364,0 -20,0 -30,-8 -41,-23 -196,-267 -392,-534 -586,-802 -56,-77 -93,-165 -132,-250 -5,-3 -8,-7 -9,-12 -1,7 -3,13 0,20z"/>
  <path class="fil2" d="M19518 2092c-119,57 -237,113 -355,171 -25,13 -31,-5 -42,-18 -124,-146 -303,-196 -477,-130 -146,55 -221,169 -250,316 -25,126 -21,253 23,375 66,180 229,278 424,260 98,-9 188,-36 263,-103 49,-44 80,-97 97,-160 7,-26 1,-35 -27,-35 -120,1 -240,-1 -360,1 -34,1 -43,-8 -42,-42 2,-86 1,-172 0,-258 0,-26 4,-37 34,-37 264,2 527,1 791,1 17,0 33,-3 33,24 7,237 -22,465 -173,660 -118,151 -278,233 -464,262 -197,31 -395,27 -579,-61 -278,-132 -428,-362 -462,-662 -31,-278 48,-523 258,-715 193,-177 426,-235 681,-215 253,20 458,129 608,336 7,9 12,18 19,30z"/>
  <path class="fil2" d="M21666 3399c-473,-1 -854,-376 -854,-840 1,-463 384,-837 856,-837 474,1 854,374 853,840 0,465 -381,837 -855,837z"/>
  <path class="fil2" d="M11384 2750c0,161 1,322 0,483 0,40 18,94 -8,117 -23,20 -75,6 -115,6 -83,1 -166,0 -250,1 -25,0 -37,-3 -36,-34 1,-511 0,-1021 0,-1532 0,-21 1,-35 28,-34 244,5 489,-10 732,15 278,29 456,249 429,528 -22,227 -115,339 -336,407 -5,2 -10,5 -18,9 144,212 286,423 433,640 -24,0 -42,0 -59,0 -133,0 -266,0 -398,1 -26,0 -40,-8 -53,-30 -105,-182 -212,-363 -318,-544 -7,-11 -14,-23 -21,-35 -3,1 -6,2 -10,2z"/>
  <path class="fil2" d="M1986 5545c1,-490 1,-980 1,-1469 0,-18 2,-37 2,-55 11,9 22,17 32,27 507,513 1014,1027 1522,1540 11,11 27,19 37,33 -124,38 -243,58 -363,70 -408,42 -807,0 -1195,-132 -12,-4 -24,-9 -36,-14z"/>
  <path class="fil2" d="M12320 2559c0,-254 0,-508 -1,-762 0,-30 6,-41 39,-40 300,1 601,1 902,0 29,0 42,4 41,38 -3,93 -2,187 0,280 0,28 -9,35 -36,35 -160,-1 -319,0 -479,-1 -31,-1 -45,5 -43,40 3,67 2,133 0,199 -1,30 8,38 38,38 148,-1 296,1 444,-1 37,-1 45,10 44,44 -3,85 -3,170 0,254 1,36 -6,48 -45,47 -147,-2 -294,0 -441,-2 -30,0 -41,6 -40,39 3,65 3,130 0,195 -1,30 8,38 38,38 159,-2 319,0 478,-2 34,0 43,9 42,43 -2,94 -2,189 0,283 0,27 -8,33 -34,33 -305,-1 -609,-1 -914,0 -30,0 -34,-10 -34,-36 1,-254 1,-508 1,-762z"/>
  <path class="fil2" d="M20439 2749c0,189 -1,378 1,567 0,35 -11,42 -42,41 -118,-2 -235,-2 -352,0 -34,1 -44,-7 -44,-43 1,-377 0,-754 1,-1130 1,-39 -9,-50 -48,-49 -91,3 -183,1 -275,2 -26,0 -37,-4 -36,-34 1,-104 1,-209 0,-313 -1,-27 8,-33 33,-33 363,1 726,1 1088,0 24,0 32,6 32,31 -2,105 -2,211 0,317 0,28 -10,32 -34,32 -96,-1 -192,1 -288,-1 -31,-1 -37,9 -37,37 2,192 1,384 1,576z"/>
  <path class="fil2" d="M10264 2556c0,-252 0,-505 -1,-758 0,-33 9,-42 42,-41 122,2 243,1 364,0 28,-1 36,8 35,35 0,511 0,1022 1,1533 0,26 -8,32 -34,32 -122,-1 -245,-2 -368,0 -31,1 -40,-7 -40,-39 1,-254 1,-508 1,-762z"/>
  <path class="fil2" d="M15936 2560c0,253 -1,506 1,758 0,32 -8,40 -40,39 -123,-2 -245,-1 -368,0 -25,0 -34,-5 -34,-32 1,-511 1,-1022 0,-1533 0,-28 8,-35 36,-35 121,1 243,2 364,0 33,-1 42,8 42,41 -2,254 -1,508 -1,762z"/>
  <path class="fil2" d="M9934 4096c67,93 133,184 203,280 105,-229 208,-453 314,-684 106,233 209,458 312,683 -5,3 -7,5 -10,5 -75,3 -81,5 -105,-67 -25,-80 -68,-112 -152,-99 -53,7 -107,2 -161,1 -26,-1 -41,5 -51,31 -12,35 -32,66 -44,100 -10,30 -29,32 -56,36 -106,17 -179,-18 -226,-116 -25,-52 -65,-96 -97,-143 -10,-14 -19,-26 -37,-21 -21,5 -11,23 -11,35 -1,71 -3,141 0,211 2,37 -19,34 -42,33 -21,-1 -43,8 -43,-31 2,-200 1,-400 1,-600 0,-16 -3,-31 22,-30 60,3 121,-4 181,7 94,18 151,79 158,171 7,87 -46,162 -135,191 -6,2 -13,4 -21,7z"/>
  <path class="fil2" d="M20297 4381c44,-228 88,-451 135,-688 77,178 150,344 227,519 76,-175 150,-342 227,-519 46,234 90,459 134,683 -4,2 -7,4 -9,4 -76,4 -76,4 -88,-71 -21,-118 -42,-235 -64,-367 -69,155 -132,299 -200,452 -68,-152 -132,-297 -200,-451 -24,135 -49,258 -67,383 -6,49 -26,62 -69,55 -7,-1 -14,0 -26,0z"/>
  <path class="fil2" d="M12902 4409c-168,-177 -329,-345 -497,-521 0,130 0,249 0,368 0,24 0,48 0,72 0,57 0,56 -58,54 -21,-1 -25,-10 -25,-28 0,-216 0,-432 0,-647 1,-3 3,-5 7,-12 162,170 322,338 490,513 0,-41 0,-72 0,-104 0,-118 2,-237 -1,-355 0,-32 17,-32 37,-28 18,3 48,-17 48,25 -1,217 -1,434 -1,663z"/>
  <path class="fil2" d="M21294 3693c165,172 325,340 492,515 0,-81 0,-152 0,-223 0,-79 1,-158 -1,-237 0,-29 14,-32 34,-27 17,4 50,-20 50,22 1,218 0,436 0,666 -167,-176 -328,-344 -490,-513 -13,11 -7,25 -7,36 0,140 -1,279 1,419 0,35 -19,31 -40,30 -20,-1 -44,9 -44,-30 2,-213 1,-426 1,-639 0,-4 1,-8 4,-19z"/>
  <path class="fil2" d="M11558 4048c1,-188 160,-344 348,-343 190,2 347,160 345,350 -2,190 -156,342 -348,341 -194,-1 -346,-155 -345,-348z"/>
  <path class="fil2" d="M8957 4052c0,-191 157,-348 348,-347 188,2 345,158 345,346 -1,193 -155,346 -349,345 -193,-1 -343,-152 -344,-344z"/>
  <path class="fil2" d="M23716 4054c-1,191 -155,342 -347,342 -193,-1 -347,-156 -346,-347 2,-188 160,-344 348,-344 191,1 346,159 345,349z"/>
  <path class="fil2" d="M8012 4049c1,194 -151,347 -345,347 -193,0 -344,-150 -346,-342 -3,-189 154,-348 345,-349 188,0 345,155 346,344z"/>
  <path class="fil2" d="M13934 3889c0,156 0,300 0,443 0,46 -27,64 -71,49 -12,-4 -11,-11 -11,-19 0,-221 0,-442 0,-673 167,175 327,343 487,511 15,-10 8,-22 8,-32 1,-137 2,-274 0,-410 -1,-34 11,-40 41,-39 26,2 43,-1 42,37 -2,213 -1,425 -1,651 -167,-174 -326,-341 -495,-518z"/>
  <path class="fil2" d="M24367 4408c-168,-176 -328,-344 -489,-512 -14,10 -8,22 -8,32 0,138 -1,277 1,415 0,32 -9,41 -40,39 -25,-2 -44,1 -43,-36 2,-206 1,-412 1,-618 0,-9 -4,-20 8,-31 160,168 320,336 487,511 0,-64 0,-118 0,-172 0,-96 1,-192 0,-288 -1,-28 13,-32 33,-27 17,5 50,-20 50,22 1,218 0,436 0,665z"/>
  <path class="fil2" d="M22459 4049c32,0 65,2 97,-1 30,-2 34,10 34,37 -4,133 -82,247 -201,291 -129,47 -272,8 -364,-99 -120,-140 -108,-351 26,-478 132,-125 344,-123 474,5 10,9 32,18 21,35 -11,17 -29,32 -46,43 -10,7 -16,-9 -22,-15 -78,-77 -168,-107 -274,-71 -105,36 -161,114 -178,221 -17,108 50,230 152,279 91,44 192,25 263,-49 7,-7 14,-14 20,-22 19,-28 45,-62 32,-92 -10,-22 -51,-6 -78,-9 -14,-1 -29,0 -43,0 -43,0 -56,-19 -45,-62 4,-17 16,-13 26,-13 35,0 70,0 106,0z"/>
  <path class="fil2" d="M15974 4096c68,94 134,186 204,282 -59,7 -104,10 -137,-51 -37,-68 -87,-128 -132,-192 -11,-16 -20,-42 -47,-33 -24,9 -10,32 -10,48 -2,68 -3,136 0,203 1,34 -18,29 -37,28 -19,-2 -47,13 -47,-28 1,-202 1,-403 0,-605 0,-18 3,-29 25,-28 61,3 121,-4 182,7 90,18 149,80 155,165 6,95 -43,167 -133,197 -7,2 -13,4 -23,7z"/>
  <path class="fil2" d="M19620 4096c67,93 134,185 201,278 -71,19 -91,13 -130,-43 -47,-69 -95,-137 -142,-205 -10,-14 -18,-30 -39,-24 -22,7 -11,26 -11,39 -1,69 -3,138 0,207 2,36 -18,34 -41,33 -21,-1 -44,9 -44,-30 2,-200 2,-400 1,-600 0,-24 5,-33 30,-31 56,3 112,-4 168,6 98,18 156,78 164,171 7,89 -47,164 -138,193 -6,2 -11,3 -19,6z"/>
  <path class="fil2" d="M18071 4096c67,94 134,186 202,280 -61,14 -105,6 -138,-52 -40,-70 -90,-133 -136,-199 -10,-15 -19,-29 -40,-23 -20,6 -9,24 -10,36 -1,71 -2,141 1,212 2,38 -22,31 -43,31 -22,0 -43,7 -42,-31 2,-199 1,-398 0,-597 0,-23 3,-35 32,-33 57,4 115,-4 172,7 94,18 152,80 158,172 7,87 -46,161 -135,190 -6,2 -13,4 -21,7z"/>
  <path class="fil2" d="M8297 4096c68,94 135,186 203,281 -60,12 -104,6 -138,-53 -40,-71 -92,-135 -138,-202 -10,-15 -20,-25 -38,-20 -21,6 -11,23 -11,35 -1,71 -3,142 0,212 2,37 -19,32 -42,32 -24,1 -41,2 -40,-33 1,-199 1,-398 0,-596 0,-23 3,-34 29,-32 58,3 116,-4 173,7 94,18 152,78 157,167 7,95 -41,165 -133,195 -6,2 -13,4 -22,7z"/>
  <path class="fil2" d="M17181 4378c104,-227 207,-453 314,-686 106,232 209,457 312,682 -76,18 -88,18 -110,-52 -27,-87 -76,-123 -168,-108 -48,7 -98,3 -147,0 -31,-2 -46,11 -56,38 -8,22 -19,43 -29,65 -31,70 -31,70 -116,61z"/>
  <path class="fil2" d="M18476 4381c106,-232 209,-457 315,-689 86,187 169,368 251,549 17,37 34,75 52,111 9,19 12,27 -16,30 -45,5 -74,-7 -84,-53 -21,-98 -81,-131 -178,-115 -48,7 -99,2 -148,1 -22,-1 -33,6 -41,26 -12,32 -31,61 -41,93 -12,38 -34,54 -74,47 -9,-1 -19,0 -36,0z"/>
  <path class="fil2" d="M13744 3960c0,63 1,127 0,190 -4,146 -99,243 -237,246 -137,2 -239,-92 -245,-237 -5,-138 -1,-276 -2,-415 0,-39 28,-22 45,-23 17,-2 40,-10 39,25 -1,118 0,237 0,355 0,30 1,59 7,88 20,87 73,132 157,129 84,-3 136,-50 149,-138 10,-66 6,-132 6,-199 1,-77 2,-155 0,-232 -1,-37 21,-29 41,-29 19,1 42,-8 41,28 -2,71 -1,141 -1,212 0,0 0,0 0,0z"/>
  <path class="fil2" d="M19891 4052c0,-96 1,-192 -1,-288 -1,-33 6,-46 43,-45 91,3 183,2 275,1 27,-1 41,2 39,35 -2,27 -2,44 -38,42 -69,-4 -138,0 -207,-2 -22,0 -30,5 -29,28 2,41 2,82 0,123 -1,27 6,37 35,36 66,-2 132,1 199,-2 33,-1 31,16 31,39 1,23 1,40 -32,38 -66,-2 -133,1 -199,-1 -25,0 -35,4 -34,32 2,62 2,124 0,186 -1,28 10,32 34,32 69,-2 138,1 207,-2 34,-1 33,16 32,39 0,21 4,40 -31,39 -97,-3 -194,-2 -292,0 -26,0 -33,-7 -33,-34 2,-98 1,-197 1,-296z"/>
  <path class="fil2" d="M15312 4050c0,-98 1,-195 -1,-292 0,-29 6,-39 37,-39 96,3 192,3 287,0 34,-1 33,16 32,38 0,22 3,41 -31,40 -70,-3 -141,0 -212,-2 -24,0 -31,7 -30,31 1,42 1,85 0,127 -1,23 7,29 29,29 67,-1 135,1 203,-1 29,-2 34,10 34,36 0,26 -3,42 -36,40 -64,-2 -129,1 -194,-1 -27,-1 -38,5 -37,34 3,61 2,122 1,182 -1,26 5,35 32,34 69,-2 138,1 207,-2 35,-1 34,17 35,41 0,26 -4,37 -34,37 -96,-2 -192,-2 -288,0 -29,0 -35,-10 -34,-36 1,-99 0,-198 0,-296z"/>
  <path class="fil2" d="M16416 4396c-91,0 -172,-61 -198,-150 -5,-17 -14,-40 16,-40 21,0 53,-37 64,17 13,59 64,96 123,95 57,0 103,-38 118,-97 15,-59 -7,-105 -69,-138 -49,-27 -104,-42 -152,-73 -83,-54 -103,-150 -48,-227 72,-101 242,-103 316,-4 8,10 30,25 3,35 -19,7 -33,47 -62,14 -43,-47 -102,-58 -153,-30 -64,35 -68,109 -7,150 43,28 93,38 138,61 89,45 130,113 120,200 -13,110 -97,186 -209,187z"/>
  <path class="fil2" d="M8569 4048c0,-99 1,-197 -1,-296 0,-27 8,-33 33,-32 68,2 136,-3 202,16 83,25 121,73 127,163 6,83 -32,149 -104,181 -39,18 -81,27 -124,22 -46,-5 -53,15 -51,55 3,64 -1,129 2,194 1,40 -24,29 -45,30 -19,0 -41,7 -40,-29 3,-101 1,-203 1,-304z"/>
  <path class="fil2" d="M11303 3842c-147,-87 -279,-75 -369,29 -86,99 -89,248 -8,351 88,112 212,125 377,36 0,23 -1,43 1,64 2,22 -9,33 -28,41 -134,56 -261,43 -372,-52 -110,-93 -144,-218 -104,-355 40,-138 137,-219 279,-245 58,-11 114,-3 171,14 41,13 63,33 54,78 -3,11 -1,22 -1,39z"/>
  <path class="fil2" d="M14969 4416c-98,-237 -191,-464 -285,-691 5,-2 7,-4 9,-4 79,-3 78,-3 107,69 51,127 102,253 153,380 4,10 9,19 16,36 13,-29 23,-52 32,-75 48,-119 98,-237 142,-357 15,-42 35,-63 81,-54 8,1 16,0 32,0 -95,231 -188,458 -287,696z"/>
  <path class="fil2" d="M7266 3838c-160,-84 -287,-69 -374,42 -82,104 -78,254 7,351 92,105 221,115 362,30 20,77 9,96 -63,118 -143,44 -296,-6 -383,-126 -86,-118 -87,-279 -1,-400 86,-121 243,-175 385,-133 71,21 73,25 67,118z"/>
  <path class="fil2" d="M22767 4087c0,-84 -2,-169 1,-253 1,-33 -10,-41 -41,-39 -31,3 -62,-1 -93,1 -34,2 -25,-22 -25,-39 -1,-17 -8,-38 24,-37 117,1 233,1 350,0 34,0 21,23 21,38 1,16 11,40 -22,38 -32,-1 -65,2 -97,-1 -30,-2 -37,9 -37,38 2,169 0,338 2,507 0,33 -9,43 -42,42 -32,0 -43,-6 -42,-41 3,-84 1,-169 1,-254z"/>
  <path class="fil2" d="M17097 4089c0,87 -2,174 1,262 1,35 -18,31 -39,30 -21,-1 -45,9 -44,-30 2,-172 0,-344 2,-516 0,-32 -8,-44 -40,-40 -22,3 -45,1 -68,1 -55,0 -56,-2 -51,-56 1,-18 9,-20 23,-20 117,0 234,1 351,0 29,-1 25,17 23,33 -3,16 14,43 -22,43 -35,0 -71,1 -106,-1 -24,-1 -31,8 -31,31 2,88 1,175 1,263z"/>
  <path class="fil2" d="M13924 4837c-50,112 -101,224 -154,343 -53,-121 -104,-237 -155,-352 -2,0 -4,1 -6,2 -10,91 -19,183 -28,275 -1,11 -2,22 -3,34 -1,16 -7,25 -26,24 -25,-2 -16,-17 -15,-30 16,-126 33,-251 49,-377 2,-18 4,-36 14,-56 56,129 112,258 170,393 61,-136 118,-264 176,-393 2,0 5,0 7,1 18,145 35,291 53,437 2,14 3,24 -16,25 -23,1 -25,-13 -26,-29 -9,-92 -18,-183 -27,-274 0,-6 -1,-13 -2,-20 -4,-1 -8,-2 -11,-3z"/>
  <path class="fil2" d="M16375 4936c0,-133 107,-240 242,-241 137,-1 248,108 248,241 -1,131 -112,240 -245,240 -135,0 -244,-108 -245,-240z"/>
  <path class="fil3" d="M11481 4053c0,99 -2,198 1,296 1,37 -19,33 -42,32 -21,-1 -43,8 -43,-31 2,-200 2,-400 0,-600 0,-40 24,-29 44,-30 20,0 42,-7 41,29 -2,101 -1,203 -1,304z"/>
  <path class="fil3" d="M16797 4052c0,99 -2,197 1,296 1,41 -23,31 -46,33 -26,2 -39,-1 -39,-34 2,-197 2,-395 0,-592 -1,-37 17,-35 42,-35 28,-1 44,0 43,36 -3,99 -1,198 -1,296z"/>
  <path class="fil3" d="M18340 4049c0,-99 1,-197 -1,-296 -1,-36 16,-34 40,-33 24,1 45,-5 45,34 -3,198 -3,395 0,592 0,43 -25,33 -48,35 -30,4 -38,-7 -37,-36 2,-99 1,-198 1,-296z"/>
  <path class="fil3" d="M21175 4053c0,98 -2,197 1,296 1,36 -19,33 -42,32 -21,-1 -44,9 -43,-30 2,-200 2,-401 0,-601 -1,-39 23,-29 43,-30 24,-1 43,-4 42,33 -3,100 -1,200 -1,300z"/>
  <path class="fil4" d="M14628 4055c0,97 -2,195 1,292 1,39 -21,33 -45,34 -26,2 -40,-1 -39,-34 2,-198 2,-395 0,-593 -1,-33 13,-36 39,-34 24,1 46,-6 45,34 -3,100 -1,201 -1,301z"/>
  <path class="fil5" d="M15804 4808c0,94 0,188 0,282 0,12 1,23 0,34 -2,15 10,37 -19,38 -30,2 -19,-22 -19,-36 -1,-121 -1,-242 -1,-364 0,-21 0,-42 0,-74 110,129 213,250 323,380 0,-71 0,-132 0,-193 0,-44 -1,-88 1,-131 0,-14 -12,-37 18,-38 29,-1 21,21 21,36 0,92 0,184 0,275 0,49 0,98 0,160 -110,-130 -212,-251 -315,-372 -3,1 -6,2 -9,3z"/>
  <path class="fil3" d="M18060 4935c0,-66 1,-133 0,-199 -1,-24 7,-32 31,-30 50,3 101,2 152,6 20,2 41,8 60,17 85,38 126,144 105,266 -17,95 -83,157 -177,164 -48,3 -96,1 -143,4 -24,1 -31,-9 -28,-30 1,-1 0,-2 0,-4 0,-65 0,-129 0,-194z"/>
  <path class="fil2" d="M14463 4793c0,119 0,225 -1,332 0,14 12,38 -18,37 -30,0 -19,-24 -19,-38 -1,-141 0,-281 0,-436 110,130 213,251 323,382 0,-69 0,-127 0,-186 0,-49 0,-98 1,-148 0,-12 -6,-30 17,-30 23,-1 20,16 20,29 0,142 0,285 0,440 -110,-130 -213,-251 -323,-382z"/>
  <path class="fil3" d="M10682 4950c53,70 104,138 156,207 -32,12 -51,3 -68,-22 -40,-58 -83,-113 -125,-170 -7,-10 -14,-23 -29,-17 -15,5 -9,19 -9,29 0,51 0,102 0,152 0,15 5,33 -20,34 -26,1 -21,-17 -22,-31 0,-132 1,-263 0,-394 0,-26 8,-35 34,-32 29,2 59,0 88,4 69,8 105,45 109,107 4,72 -23,109 -95,127 -5,1 -10,3 -19,6z"/>
  <path class="fil5" d="M15361 4884c3,47 -5,104 5,160 12,64 48,93 119,94 71,0 109,-28 122,-91 4,-19 5,-39 5,-59 1,-86 0,-172 0,-258 0,-14 1,-25 20,-24 16,0 23,6 22,22 -3,106 8,212 -6,317 -12,88 -69,131 -163,131 -93,-1 -150,-47 -160,-135 -11,-103 -2,-208 -5,-312 0,-16 6,-23 22,-23 20,-1 19,12 19,25 0,48 0,96 0,153z"/>
  <path class="fil3" d="M24620 1825c0,-126 97,-224 221,-223 122,1 218,100 218,223 -1,124 -97,223 -218,225 -121,1 -220,-100 -221,-225z"/>
  <path class="fil3" d="M19550 4983c-127,17 -200,-52 -179,-167 15,-79 89,-127 176,-112 73,12 120,78 110,155 -5,40 -20,76 -43,109 -46,66 -94,131 -140,196 -10,13 -18,21 -34,10 -22,-14 -5,-24 2,-34 29,-40 60,-79 89,-118 8,-11 21,-20 19,-39z"/>
  <path class="fil3" d="M19929 4982c-28,3 -49,7 -69,6 -73,-4 -122,-59 -124,-135 -1,-80 48,-140 124,-150 115,-14 190,73 159,185 -13,47 -39,87 -67,125 -35,48 -70,96 -105,143 -10,14 -17,36 -41,16 -22,-18 2,-27 9,-37 35,-50 73,-98 114,-153z"/>
  <path class="fil3" d="M20196 4901c38,-10 65,-15 91,-10 85,16 130,109 96,196 -27,68 -102,103 -178,84 -70,-17 -108,-76 -100,-150 4,-39 18,-74 40,-106 46,-67 93,-134 140,-201 8,-12 14,-23 32,-11 20,12 9,22 0,33 -38,52 -76,104 -121,165z"/>
  <path class="fil3" d="M12346 4901c39,-10 65,-15 92,-10 84,16 130,109 96,196 -28,69 -104,104 -183,83 -67,-18 -105,-79 -95,-153 5,-34 16,-66 35,-94 49,-71 98,-141 147,-212 11,-16 19,-16 33,-6 19,13 4,22 -3,31 -38,52 -76,104 -122,165z"/>
  <path class="fil3" d="M12850 4717c-43,58 -86,117 -129,176 5,8 13,4 19,3 86,-20 155,21 171,103 16,89 -39,165 -128,176 -109,14 -182,-72 -155,-182 12,-46 38,-84 64,-122 36,-51 74,-100 108,-152 17,-27 31,-27 50,-2z"/>
  <path class="fil5" d="M14097 4934c0,-65 1,-129 -1,-194 0,-25 4,-36 32,-35 55,2 110,1 165,1 14,0 29,-2 30,20 1,23 -15,19 -29,19 -42,0 -84,1 -126,0 -21,-1 -29,4 -30,27 -5,116 -5,116 110,116 18,0 36,1 55,0 14,0 20,5 20,20 -1,14 -7,20 -21,20 -45,-1 -90,1 -135,-1 -23,-1 -30,7 -29,29 1,47 2,93 0,140 -1,26 10,30 32,29 43,-1 85,0 127,0 13,0 26,-1 26,18 0,19 -12,20 -26,20 -57,-1 -115,-2 -173,0 -24,1 -30,-9 -27,-30 0,-1 0,-3 0,-4 0,-65 0,-130 0,-195z"/>
  <path class="fil5" d="M18506 4931c0,-65 1,-130 0,-195 -1,-24 8,-31 31,-31 55,2 110,1 165,1 14,0 29,-2 29,20 1,23 -14,19 -28,19 -42,0 -84,1 -127,0 -21,-1 -28,5 -29,28 -5,115 -6,115 111,115 14,0 28,-1 42,1 12,1 30,-9 31,15 2,24 -13,24 -30,24 -40,-1 -81,1 -122,-1 -24,-1 -33,6 -32,31 2,45 2,90 0,135 -1,28 11,33 35,32 41,-2 82,-1 123,0 11,0 25,-4 26,17 1,21 -12,21 -27,21 -56,-1 -113,-1 -169,0 -23,0 -30,-7 -29,-29 1,-68 0,-135 0,-203z"/>
  <path class="fil3" d="M17191 5127c66,0 124,-1 181,0 11,0 26,-5 27,16 2,23 -14,19 -28,19 -84,1 -169,0 -253,0 -5,-16 8,-20 14,-28 54,-61 109,-122 163,-184 18,-21 32,-46 46,-70 20,-34 22,-70 -3,-103 -25,-34 -61,-43 -102,-37 -42,7 -67,33 -76,74 -2,6 -4,11 -4,17 0,21 -16,15 -27,15 -18,0 -14,-13 -13,-24 7,-53 32,-94 85,-110 61,-20 121,-17 168,33 39,41 40,91 18,141 -29,65 -78,114 -125,164 -22,23 -43,47 -71,77z"/>
  <path class="fil3" d="M11955 5127c68,0 123,-1 178,0 12,0 30,-6 31,17 1,23 -16,18 -29,18 -84,1 -168,1 -262,1 29,-33 52,-59 75,-84 55,-62 115,-120 156,-194 20,-37 25,-75 -3,-111 -25,-32 -72,-44 -115,-30 -38,12 -58,41 -63,78 -2,20 -8,27 -28,25 -25,-3 -15,-21 -13,-32 9,-55 39,-93 95,-107 59,-14 116,-10 159,39 38,42 38,92 15,142 -31,66 -83,117 -132,170 -19,20 -38,40 -64,68z"/>
  <path class="fil3" d="M10903 4935c0,-66 0,-132 -1,-198 0,-25 8,-32 32,-32 55,2 110,1 165,1 13,0 28,-3 29,19 1,23 -14,20 -28,20 -42,0 -84,1 -127,0 -24,-2 -30,7 -30,31 -3,112 -4,112 109,112 11,0 23,-2 34,1 14,4 41,-15 41,17 1,36 -28,20 -44,21 -35,2 -70,2 -105,0 -24,-1 -37,4 -35,32 2,45 1,91 0,136 -1,24 8,31 32,30 42,-1 84,0 126,0 12,0 26,-4 27,17 1,22 -13,21 -28,21 -56,-1 -113,-1 -169,0 -22,0 -29,-7 -29,-29 1,-66 1,-132 1,-199z"/>
  <path class="fil3" d="M11316 5176c-44,-1 -84,-21 -110,-68 -6,-11 -13,-21 4,-30 14,-7 21,-6 29,9 24,45 64,57 111,48 36,-7 56,-32 63,-66 11,-52 -4,-83 -52,-114 -33,-21 -69,-39 -100,-62 -54,-40 -62,-113 -20,-159 42,-48 127,-53 171,-9 8,8 28,17 12,34 -13,14 -24,8 -38,-5 -32,-30 -88,-27 -113,3 -27,32 -22,78 18,107 35,27 74,46 110,71 51,35 68,94 47,157 -17,52 -63,83 -132,84z"/>
  <path class="fil4" d="M15215 4904c0,60 1,119 -1,178 -2,38 -16,72 -56,86 -39,14 -75,10 -107,-17 -9,-7 -27,-14 -12,-32 13,-15 23,-16 37,-1 16,19 40,22 62,13 28,-10 33,-37 34,-63 1,-86 1,-172 1,-257 0,-27 0,-54 0,-81 0,-13 0,-24 19,-25 20,0 24,9 23,26 0,58 0,116 0,173 0,0 0,0 0,0z"/>
  <path class="fil6" d="M13048 4745c1,-26 13,-37 37,-35 16,2 32,2 47,0 27,-3 33,8 32,34 -1,128 0,256 0,383 0,16 6,36 -22,36 -27,-1 -18,-21 -18,-34 -1,-109 -2,-219 0,-329 1,-40 -5,-62 -51,-53 -8,1 -16,-1 -25,-2z"/>
  <path class="fil7" d="M17545 4744c6,-46 40,-29 65,-34 42,-6 54,8 53,51 -3,123 -1,246 -1,368 0,13 8,32 -18,34 -29,1 -23,-18 -23,-34 0,-110 -2,-220 1,-330 1,-42 -9,-60 -53,-52 -7,1 -16,-2 -24,-3z"/>
  <path class="fil6" d="M19055 4745c3,-24 12,-37 37,-35 17,2 34,2 51,0 23,-2 28,7 28,29 -1,131 0,262 0,394 0,12 6,29 -18,30 -25,0 -22,-16 -22,-31 0,-110 -3,-220 1,-330 1,-45 -11,-63 -56,-55 -6,1 -13,-1 -21,-2z"/>
  <path class="fil7" d="M16241 4936c0,-66 0,-133 0,-199 0,-15 -4,-31 21,-31 26,-1 20,17 20,31 1,132 1,264 0,396 0,13 6,29 -18,30 -23,1 -24,-12 -24,-29 1,-66 1,-132 1,-198z"/>
  <path class="fil5" d="M12021 3548c-46,42 -88,79 -128,118 -17,16 -28,4 -40,-4 -19,-13 -2,-22 4,-31 22,-30 48,-59 68,-91 17,-27 34,-32 59,-13 10,7 22,12 37,21z"/>
  <path class="fil8" d="M14793 2350c-2,-11 -3,-22 13,-30 4,19 6,37 2,55 -7,-7 -3,-21 -15,-25z"/>
  <path class="fil9" d="M16603 2324c-9,-16 -8,-34 -7,-54 12,3 12,13 15,21 -11,9 -3,23 -8,33z"/>
  <path class="fil10" d="M23088 2206c-8,-15 -8,-32 -6,-49 12,4 13,14 15,23 -10,6 -5,18 -9,26z"/>
  <path class="fil11" d="M17359 2805c8,14 9,28 5,44 -11,-3 -10,-12 -13,-20 3,-8 5,-16 8,-24z"/>
  <path class="fil12" d="M8839 2290c-7,-9 -12,-19 -2,-27 2,-1 10,10 11,19 -3,3 -6,5 -9,8z"/>
  <path class="fil13" d="M4188 4298c-14,-1 -20,-2 -27,-2 -68,0 -111,-27 -128,-81 -18,-56 -1,-120 42,-153 45,-35 121,-38 167,-8 46,31 67,92 49,151 -10,34 -27,65 -46,94 -32,47 -66,92 -96,140 -17,27 -32,11 -48,2 -24,-13 -2,-23 4,-32 26,-36 53,-71 83,-111z"/>
  <path class="fil13" d="M4647 4177c123,-27 198,36 182,149 -9,56 -40,94 -93,109 -59,17 -117,14 -166,-32 -23,-21 0,-30 9,-43 12,-17 20,-16 35,0 32,34 76,40 111,21 35,-18 51,-59 42,-102 -12,-61 -87,-86 -151,-51 -10,6 -19,24 -32,13 -10,-9 0,-23 3,-36 11,-46 23,-92 34,-139 3,-15 6,-25 26,-25 48,2 96,1 144,0 19,0 23,8 23,25 0,19 -3,30 -25,28 -17,-2 -34,-1 -51,-1 -78,0 -78,0 -91,84z"/>
  <path class="fil14" d="M3811 4093c3,-48 30,-53 67,-52 68,2 68,1 68,69 0,97 -1,194 1,291 0,26 -7,33 -33,33 -29,1 -27,-14 -27,-34 0,-86 -2,-172 1,-257 1,-39 -6,-59 -49,-51 -8,2 -17,1 -28,1z"/>
  <path class="fil13" d="M4337 4093c4,-57 41,-52 76,-52 58,1 58,1 58,57 0,101 0,203 1,304 0,22 -4,32 -30,32 -23,0 -31,-7 -30,-31 1,-87 -2,-174 1,-261 2,-41 -9,-57 -50,-50 -8,2 -16,1 -26,1z"/>
  <path class="fil15" d="M22084 2566c2,70 -10,140 -39,207 -77,183 -238,275 -441,253 -165,-18 -308,-159 -343,-340 -19,-101 -18,-201 15,-300 60,-183 207,-293 390,-294 178,0 329,111 391,288 20,59 28,120 27,186z"/>
  <path class="fil15" d="M11385 2302c0,-60 0,-121 -1,-182 0,-15 1,-27 22,-26 69,1 138,-4 206,17 63,20 101,62 116,127 8,35 10,70 7,105 -8,95 -70,151 -183,165 -46,5 -93,3 -139,6 -23,1 -29,-9 -29,-30 1,-61 1,-121 1,-182z"/>
  <path class="fil15" d="M9812 3911c0,-31 1,-62 0,-93 -1,-19 6,-25 24,-24 31,2 62,2 92,11 58,17 86,54 85,110 -1,58 -32,95 -91,110 -104,25 -110,20 -110,-85 0,-10 0,-19 0,-29z"/>
  <path class="fil13" d="M10568 4141c-74,0 -142,-1 -209,0 -22,0 -23,-8 -15,-26 34,-77 68,-154 106,-242 41,92 78,176 118,268z"/>
  <path class="fil15" d="M12168 4050c0,149 -118,269 -263,268 -147,0 -264,-120 -264,-268 1,-151 115,-267 264,-267 149,0 263,116 263,267z"/>
  <path class="fil15" d="M9567 4052c0,147 -121,268 -266,266 -146,-1 -263,-122 -262,-270 2,-151 117,-266 266,-265 149,1 263,119 262,269z"/>
  <path class="fil15" d="M23633 4054c-1,146 -118,264 -262,264 -148,0 -266,-122 -265,-272 2,-150 121,-266 268,-263 150,3 261,119 259,271z"/>
  <path class="fil15" d="M7402 4051c0,-150 116,-268 264,-268 148,0 264,115 265,266 1,147 -119,269 -264,269 -145,1 -265,-120 -265,-267z"/>
  <path class="fil16" d="M15851 3913c0,-17 0,-34 0,-51 0,-72 0,-72 74,-66 100,9 150,75 122,159 -18,51 -61,66 -108,74 -87,15 -88,15 -88,-70 0,-15 0,-31 0,-46z"/>
  <path class="fil15" d="M19498 3912c0,-16 0,-31 0,-47 0,-77 0,-77 78,-68 93,10 137,65 120,146 -7,31 -23,54 -52,68 -15,7 -31,12 -47,15 -99,21 -99,21 -99,-76 0,-13 0,-25 0,-38z"/>
  <path class="fil15" d="M17949 3914c0,-23 0,-45 0,-68 0,-53 0,-53 55,-50 87,4 133,34 144,95 11,65 -20,114 -83,132 -102,30 -116,20 -116,-84 0,-9 0,-17 0,-25z"/>
  <path class="fil14" d="M8175 3913c0,-17 0,-34 0,-51 0,-72 0,-72 73,-66 83,8 127,46 128,113 1,63 -29,102 -93,116 -104,24 -108,21 -108,-83 0,-10 0,-19 0,-29z"/>
  <path class="fil13" d="M17612 4141c-73,0 -140,0 -206,-1 -12,0 -30,4 -20,-18 35,-81 71,-162 109,-249 41,92 78,177 117,268z"/>
  <path class="fil13" d="M18791 3873c41,93 78,178 117,268 -74,0 -142,-1 -210,0 -17,0 -23,-5 -15,-23 35,-79 70,-158 108,-245z"/>
  <path class="fil15" d="M8652 3911c0,-31 1,-62 0,-93 -1,-18 6,-25 24,-24 29,3 59,1 88,9 60,17 89,50 89,106 0,59 -29,96 -88,112 -101,28 -113,20 -113,-81 0,-9 0,-19 0,-29z"/>
  <path class="fil15" d="M16618 4734c112,0 201,87 202,200 1,113 -87,202 -199,203 -111,2 -201,-87 -202,-200 -1,-112 87,-202 199,-203z"/>
  <path class="fil15" d="M18102 4934c0,-55 1,-110 0,-165 -1,-23 7,-30 29,-28 28,2 56,1 84,3 79,4 124,41 145,118 12,47 12,95 1,142 -21,82 -69,119 -155,122 -104,3 -104,3 -104,-99 0,-31 0,-62 0,-93z"/>
  <path class="fil14" d="M10648 4743c47,2 87,5 100,55 8,34 10,70 -20,94 -31,25 -72,21 -110,19 -13,-1 -11,-14 -11,-24 0,-32 2,-65 -1,-97 -3,-38 7,-57 42,-47z"/>
  <path class="fil15" d="M25021 1828c-1,110 -80,191 -183,191 -104,-1 -184,-86 -182,-197 2,-107 83,-192 184,-192 103,1 182,87 181,198z"/>
  <path class="fil15" d="M19412 4849c-1,-67 39,-111 100,-112 59,-1 102,42 103,105 1,63 -41,110 -101,112 -60,1 -102,-42 -102,-105z"/>
  <path class="fil14" d="M19982 4843c1,65 -42,111 -102,111 -59,0 -101,-45 -101,-107 1,-65 42,-110 103,-110 60,1 100,43 100,106z"/>
  <path class="fil15" d="M20350 5034c-3,66 -45,108 -106,106 -60,-3 -99,-47 -97,-110 2,-64 46,-108 106,-106 60,2 99,47 97,110z"/>
  <path class="fil15" d="M12500 5027c1,67 -38,111 -99,113 -60,1 -102,-41 -104,-104 -2,-65 43,-113 105,-112 58,0 98,42 98,103z"/>
  <path class="fil14" d="M12666 5032c1,-64 44,-109 104,-108 59,1 101,46 100,108 -2,65 -44,109 -105,108 -60,-2 -99,-44 -99,-108z"/>
  <path class="fil3" d="M4235 4164c0,48 -28,80 -71,81 -45,1 -74,-29 -75,-78 0,-49 29,-82 76,-81 41,0 69,32 70,78z"/>
  <path class="fil5" d="M24764 1824c0,-31 1,-62 -1,-93 -2,-26 6,-39 34,-39 25,-1 50,-3 75,4 57,15 76,79 32,118 -18,17 -15,23 -2,40 20,27 18,62 30,92 3,8 1,13 -9,13 -11,1 -23,2 -27,-13 -4,-16 -8,-32 -12,-49 -4,-15 -8,-30 -21,-41 -16,-13 -37,-17 -55,-11 -18,6 -9,25 -9,38 -2,18 -1,36 -1,54 0,13 -1,22 -17,23 -17,0 -18,-10 -17,-22 0,-38 0,-76 0,-114z"/>
  <path class="fil14" d="M24825 1818c-49,-2 -21,-41 -26,-62 -6,-23 0,-40 31,-39 40,2 65,21 62,52 -3,40 -32,48 -67,49z"/>
 </g>
</svg>
